<svg xmlns="http://www.w3.org/2000/svg" version="1.1" xmlns:xlink="http://www.w3.org/1999/xlink" width="1000" height="1000"><g clip-path="url(#SvgjsClipPath1102)"><rect width="1000" height="1000" fill="#ffffff"></rect><g transform="matrix(0.8,0,0,0.8,100,100)"><svg xmlns="http://www.w3.org/2000/svg" version="1.1" xmlns:xlink="http://www.w3.org/1999/xlink" width="1000" height="1000" id="svg2" sodipodi:docname="favicon.svg" inkscape:version="1.3 (0e150ed6c4, 2023-07-21)" xmlns:inkscape="http://www.inkscape.org/namespaces/inkscape" xmlns:sodipodi="http://sodipodi.sourceforge.net/DTD/sodipodi-0.dtd" xmlns:svg="http://www.w3.org/2000/svg"><sodipodi:namedview id="namedview2" pagecolor="#ffffff" bordercolor="#000000" borderopacity="0.25" inkscape:showpageshadow="2" inkscape:pageopacity="0.0" inkscape:pagecheckerboard="0" inkscape:deskcolor="#d1d1d1" inkscape:zoom="0.2455" inkscape:cx="441.95519" inkscape:cy="315.68228" inkscape:window-width="1366" inkscape:window-height="705" inkscape:window-x="-8" inkscape:window-y="-8" inkscape:window-maximized="1" inkscape:current-layer="svg2"></sodipodi:namedview><rect width="1000" height="1000" fill="#ffffff" id="rect1" x="0" y="0" clip-path="url(#clipPath4)"></rect><defs id="defs2">
    <linearGradient inkscape:collect="always" xlink:href="#linearGradient101" id="linearGradient124" gradientUnits="userSpaceOnUse" gradientTransform="matrix(0.31475475,0,0,0.31475475,327.68597,284.12283)" x1="401.51093" y1="528.19092" x2="386.48111" y2="637.69385"></linearGradient>
    <linearGradient id="linearGradient101" inkscape:collect="always">
      <stop style="stop-color:#4faf41;stop-opacity:1;" offset="0.61769837" id="stop100"></stop>
      <stop style="stop-color:#05684e;stop-opacity:1;" offset="1" id="stop101"></stop>
    </linearGradient>
    <linearGradient inkscape:collect="always" xlink:href="#linearGradient95" id="linearGradient123" gradientUnits="userSpaceOnUse" gradientTransform="matrix(0.31475475,0,0,0.31475475,327.68597,284.12283)" x1="521.83954" y1="434.82355" x2="500.10788" y2="576.36218"></linearGradient>
    <linearGradient id="linearGradient95" inkscape:collect="always">
      <stop style="stop-color:#4faf41;stop-opacity:1;" offset="0.38321996" id="stop95"></stop>
      <stop style="stop-color:#05684e;stop-opacity:1;" offset="1" id="stop96"></stop>
    </linearGradient>
    <linearGradient inkscape:collect="always" xlink:href="#linearGradient129" id="linearGradient122" gradientUnits="userSpaceOnUse" gradientTransform="matrix(0.31475475,0,0,0.31475475,327.68597,284.12283)" x1="428.90314" y1="531.38446" x2="594.39142" y2="438.77176"></linearGradient>
    <linearGradient id="linearGradient129" inkscape:collect="always">
      <stop style="stop-color:#053d78;stop-opacity:1;" offset="0" id="stop128"></stop>
      <stop style="stop-color:#0165be;stop-opacity:1;" offset="1" id="stop129"></stop>
    </linearGradient>
    <linearGradient inkscape:collect="always" xlink:href="#linearGradient95" id="linearGradient121" gradientUnits="userSpaceOnUse" gradientTransform="matrix(0.31475475,0,0,0.31475475,327.68597,284.12283)" x1="633.3996" y1="339.24457" x2="607.63422" y2="487.39566"></linearGradient>
    <linearGradient inkscape:collect="always" xlink:href="#linearGradient127" id="linearGradient120" gradientUnits="userSpaceOnUse" gradientTransform="matrix(0.31475475,0,0,0.31475475,327.68597,284.12283)" x1="548.08508" y1="367.4144" x2="411.44336" y2="479.00513"></linearGradient>
    <linearGradient id="linearGradient127" inkscape:collect="always">
      <stop style="stop-color:#0167c2;stop-opacity:1;" offset="0" id="stop126"></stop>
      <stop style="stop-color:#003d6b;stop-opacity:1;" offset="1" id="stop127"></stop>
    </linearGradient>
    <linearGradient inkscape:collect="always" xlink:href="#linearGradient125" id="linearGradient119" gradientUnits="userSpaceOnUse" gradientTransform="matrix(0.31475475,0,0,0.31475475,327.68597,284.12283)" x1="212.56462" y1="637.69385" x2="865.28827" y2="221.15312"></linearGradient>
    <linearGradient id="linearGradient125" inkscape:collect="always">
      <stop style="stop-color:#05684e;stop-opacity:1;" offset="0.26149306" id="stop124"></stop>
      <stop style="stop-color:#4bac40;stop-opacity:1;" offset="1" id="stop125"></stop>
    </linearGradient>
    <clipPath clipPathUnits="userSpaceOnUse" id="clipPath3">
      <g id="g4" transform="matrix(0.04571429,0,0,0.04571429,-6.8571429,-6.8571429)">
        <rect width="1000" height="1000" x="0" y="0" rx="350" ry="350" id="rect3"></rect>
      </g>
    </clipPath>
    <clipPath clipPathUnits="userSpaceOnUse" id="clipPath4">
      <g id="g5">
        <rect width="1000" height="1000" x="0" y="0" rx="350" ry="350" id="rect4"></rect>
      </g>
    </clipPath>
  <clipPath id="SvgjsClipPath1102"><rect width="1000" height="1000" x="0" y="0" rx="350" ry="350"></rect></clipPath></defs><g id="g129" transform="matrix(1.1669707,0,0,1.1669707,-130.16418,-130.16418)">
    <g id="g130" transform="matrix(3.1770768,0,0,3.1770768,-1041.0835,-902.6801)">
      <path style="fill:url(#linearGradient124);fill-opacity:1;stroke:none" d="m 438.15355,490.95462 c 7.33533,-2.0816 23.51539,-4.67785 27.97221,-11.41821 2.46314,-3.72516 1.02779,-11.29443 1.02779,-15.58179 0,-3.3894 0.95357,-8.71289 -1.02779,-11.68213 -2.53428,-3.79785 -24.09685,-4.30981 -26.94443,-0.71447 -2.0735,2.61798 -1.02778,8.27508 -1.02778,11.3966 v 28" id="path109"></path>
      <path style="fill:url(#linearGradient123);fill-opacity:1;stroke:none" d="m 474.15355,474.95462 c 8.28433,-3.03308 25.01275,-12.5437 28.3966,-21.08947 1.87839,-4.74384 0.6034,-11.87214 0.6034,-16.91053 0,-4.11218 1.27429,-11.00189 -1.17902,-14.56634 -2.73074,-3.96753 -23.75284,-4.44916 -26.7932,-0.69135 -2.45213,3.03076 -1.02778,10.58185 -1.02778,14.25769 v 39" id="path110"></path>
      <path style="fill:url(#linearGradient122);fill-opacity:1;stroke:none" d="m 587.15355,414.95462 c -5.41257,6.35034 -14.86746,15.88233 -16.86035,24 -2.36902,9.64966 2.27423,17.9867 4.70141,27 2.04456,7.59235 1.97595,16.25067 0.8588,24 -5.9245,41.09595 -46.4711,56 -82.69986,56 v -1 c 29.61561,-0.003 64.47171,-17.59991 72.84183,-48 4.75253,-17.26111 0.91326,-34.68194 0.15817,-52 -4.84247,2.25824 -8.2302,6.27143 -12,9.99616 -4.61875,4.56353 -11.64545,8.67285 -14.98688,14.28937 -6.3771,10.71911 -2.01312,33.5404 -2.01312,45.71447 h -1 l -2,-41 c -6.94536,2.93616 -25.34297,13.2088 -28.39737,20.20984 -3.2755,7.50788 -1.60263,18.77942 -1.60263,26.79016 h -1 l -1,-25 c -6.63289,1.51764 -26.06574,8.95447 -29.97222,14.51001 -1.91333,2.72095 -1.61598,8.23157 -2.02778,11.48999 h -1 l -1,-11 c -19.26541,6.26648 -36.11658,7.8559 -56.00003,4 6.1175,14.44837 23.43112,26.36341 37.00003,33.24384 53.17218,26.96228 124.74603,2.94311 144.33258,-55.24384 7.19,-21.3598 11.65463,-60.18853 -6.33258,-78" id="path111"></path>
      <path style="fill:url(#linearGradient121);fill-opacity:1;stroke:none" d="m 510.15355,390.95461 v 57 c 13.43847,-9.46624 28,-25.27655 28,-42 0,-3.47577 1.4781,-11.53161 -1.6034,-13.97223 -4.84281,-3.83557 -20.32191,-1.02777 -26.3966,-1.02777" id="path112"></path>
      <path style="fill:url(#linearGradient120);fill-opacity:1;stroke:none" d="m 426.15351,491.95461 c -4.53319,-13.9317 -8.31179,-28.17444 -6.82939,-43 3.98819,-39.88751 38.14672,-72.99011 77.82943,-76.83026 13.405,-1.29724 27.34434,0.28485 40,4.88428 7.0809,2.57342 13.70952,7.27777 21,8.94598 l -8,-17 c -11.23331,-5.91046 -22.429,-11.97961 -35,-14.55017 -44.79813,-9.16046 -90.93144,11.14887 -113.13503,51.55017 -10.8634,19.76691 -14.3952,42.2367 -5.2886,63 5.6809,12.95246 14.5448,22.87525 29.42359,23" id="path113"></path>
      <path style="fill:url(#linearGradient119);fill-opacity:1;stroke:none;stroke-width:4.2;stroke-dasharray:none;stroke-opacity:1" d="m 558.15355,371.95461 v 1 c 2.8533,2.04364 8.44345,4.65522 9.58179,8.18445 1.13491,3.51868 -2.79236,8.84137 -4.36264,11.81555 -5.71619,10.82666 -12.4459,21.27088 -19.87348,31 -24.18005,31.67255 -59.65541,64.13391 -99.34567,74.10492 -19.99444,5.02301 -46.24863,0.67603 -53.00003,-22.10492 h -1 c 1.5477,35.49738 44.43156,36.89722 70.00003,28.97455 41.263,-12.78577 77.53506,-41.03699 104.75,-73.97455 8.92697,-10.80407 19.60977,-23.09619 25.25,-36 l 15,8 -3,-54 -44,23" id="path114"></path>
    </g>
  </g></svg></g></g></svg>