<?xml version="1.0" encoding="UTF-8" standalone="no"?>
<!-- Created with Inkscape (http://www.inkscape.org/) -->

<svg
   width="568"
   height="219"
   viewBox="0 0 150.28314 57.943764"
   version="1.1"
   id="svg1"
   xml:space="preserve"
   inkscape:export-filename="logo.png"
   inkscape:export-xdpi="96"
   inkscape:export-ydpi="96"
   inkscape:version="1.3 (0e150ed6c4, 2023-07-21)"
   sodipodi:docname="logo2.svg"
   xmlns:inkscape="http://www.inkscape.org/namespaces/inkscape"
   xmlns:sodipodi="http://sodipodi.sourceforge.net/DTD/sodipodi-0.dtd"
   xmlns:xlink="http://www.w3.org/1999/xlink"
   xmlns="http://www.w3.org/2000/svg"
   xmlns:svg="http://www.w3.org/2000/svg"><sodipodi:namedview
     id="namedview1"
     pagecolor="#ffffff"
     bordercolor="#000000"
     borderopacity="0.25"
     inkscape:showpageshadow="2"
     inkscape:pageopacity="0.0"
     inkscape:pagecheckerboard="0"
     inkscape:deskcolor="#d1d1d1"
     inkscape:document-units="mm"
     inkscape:zoom="0.64"
     inkscape:cx="228.125"
     inkscape:cy="136.71875"
     inkscape:window-width="1366"
     inkscape:window-height="705"
     inkscape:window-x="-8"
     inkscape:window-y="-8"
     inkscape:window-maximized="1"
     inkscape:current-layer="g22" /><defs
     id="defs1"><linearGradient
       id="linearGradient4"
       inkscape:collect="always"><stop
         style="stop-color:#004377;stop-opacity:1;"
         offset="0.29028165"
         id="stop1" /><stop
         style="stop-color:#0163ba;stop-opacity:1;"
         offset="1"
         id="stop4" /></linearGradient><linearGradient
       id="linearGradient101"
       inkscape:collect="always"><stop
         style="stop-color:#4faf41;stop-opacity:1;"
         offset="0.61769837"
         id="stop100" /><stop
         style="stop-color:#05684e;stop-opacity:1;"
         offset="1"
         id="stop101" /></linearGradient><linearGradient
       id="linearGradient95"
       inkscape:collect="always"><stop
         style="stop-color:#4faf41;stop-opacity:1;"
         offset="0.38321996"
         id="stop95" /><stop
         style="stop-color:#05684e;stop-opacity:1;"
         offset="1"
         id="stop96" /></linearGradient><linearGradient
       id="linearGradient3"
       inkscape:collect="always"><stop
         style="stop-color:#003f6f;stop-opacity:1;"
         offset="0"
         id="stop2" /><stop
         style="stop-color:#0165bd;stop-opacity:1;"
         offset="1"
         id="stop3" /></linearGradient><linearGradient
       id="linearGradient89"
       inkscape:collect="always"><stop
         style="stop-color:#0167c2;stop-opacity:1;"
         offset="0"
         id="stop89" /><stop
         style="stop-color:#003d6b;stop-opacity:1;"
         offset="1"
         id="stop90" /></linearGradient><linearGradient
       id="linearGradient93"
       inkscape:collect="always"><stop
         style="stop-color:#05684e;stop-opacity:1;"
         offset="0.29478458"
         id="stop93" /><stop
         style="stop-color:#4bac40;stop-opacity:1;"
         offset="1"
         id="stop94" /></linearGradient><linearGradient
       id="linearGradient106"
       inkscape:collect="always"><stop
         style="stop-color:#4faf41;stop-opacity:1;"
         offset="0.53939307"
         id="stop105" /><stop
         style="stop-color:#05684e;stop-opacity:1;"
         offset="1"
         id="stop106" /></linearGradient><linearGradient
       inkscape:collect="always"
       xlink:href="#linearGradient106"
       id="linearGradient5"
       x1="530.99725"
       y1="106.03484"
       x2="527.3855"
       y2="188.31929"
       gradientUnits="userSpaceOnUse"
       gradientTransform="translate(-1.0185246e-5,1.052836e-5)" /><linearGradient
       inkscape:collect="always"
       xlink:href="#linearGradient5"
       id="linearGradient9"
       x1="799.6109"
       y1="187.62529"
       x2="797.88342"
       y2="106.68414"
       gradientUnits="userSpaceOnUse"
       gradientTransform="translate(-1.0185246e-5,1.052836e-5)" /><linearGradient
       inkscape:collect="always"
       xlink:href="#linearGradient101"
       id="linearGradient100-3"
       x1="182.50496"
       y1="128.82703"
       x2="178.21072"
       y2="167.47514"
       gradientUnits="userSpaceOnUse"
       gradientTransform="matrix(0.16634049,0,0,0.16634049,-10.205849,-0.42082227)" /><linearGradient
       inkscape:collect="always"
       xlink:href="#linearGradient95"
       id="linearGradient98-7"
       x1="221.15308"
       y1="101.98807"
       x2="220.07951"
       y2="149.22464"
       gradientUnits="userSpaceOnUse"
       gradientTransform="matrix(0.16634049,0,0,0.16634049,-10.205849,-0.42082227)" /><linearGradient
       inkscape:collect="always"
       xlink:href="#linearGradient3"
       id="linearGradient92-4"
       x1="166.40158"
       y1="224.37376"
       x2="329.58249"
       y2="107.35587"
       gradientUnits="userSpaceOnUse"
       gradientTransform="matrix(0.16634049,0,0,0.16634049,-10.205849,-0.42082227)" /><linearGradient
       inkscape:collect="always"
       xlink:href="#linearGradient95"
       id="linearGradient96-6"
       x1="255.50694"
       y1="71.928429"
       x2="253.35983"
       y2="115.94433"
       gradientUnits="userSpaceOnUse"
       gradientTransform="matrix(0.16634049,0,0,0.16634049,-10.205849,-0.42082227)" /><linearGradient
       inkscape:collect="always"
       xlink:href="#linearGradient89"
       id="linearGradient90-0"
       x1="284.49304"
       y1="40.795231"
       x2="125.60637"
       y2="156.73956"
       gradientUnits="userSpaceOnUse"
       gradientTransform="matrix(0.16634049,0,0,0.16634049,-10.205849,-0.42082227)" /><linearGradient
       inkscape:collect="always"
       xlink:href="#linearGradient93"
       id="linearGradient94-3"
       x1="138.99025"
       y1="185.6794"
       x2="332.88751"
       y2="36.1866"
       gradientUnits="userSpaceOnUse"
       gradientTransform="matrix(0.16634049,0,0,0.16634049,-10.205849,-0.42082227)" /><linearGradient
       inkscape:collect="always"
       xlink:href="#linearGradient106"
       id="linearGradient105-1"
       x1="530.99725"
       y1="106.03484"
       x2="527.3855"
       y2="188.31929"
       gradientUnits="userSpaceOnUse"
       gradientTransform="matrix(0.16634049,0,0,0.16634049,-10.205851,-0.42082027)" /><linearGradient
       inkscape:collect="always"
       xlink:href="#linearGradient4"
       id="linearGradient108-2"
       x1="799.6109"
       y1="187.62529"
       x2="797.88342"
       y2="105.80544"
       gradientUnits="userSpaceOnUse"
       gradientTransform="matrix(0.16634049,0,0,0.16634049,-10.205851,-0.42082027)" /></defs><g
     inkscape:label="Camada 1"
     inkscape:groupmode="layer"
     id="layer1"><g
       id="g22"><g
         id="g4"
         transform="matrix(1.114182,0,0,1.114182,-9.0969941,4.3280799)"><path
           style="fill:url(#linearGradient100-3);fill-opacity:1;stroke:none;stroke-width:0.166341"
           d="m 18.418582,28.250302 c 1.220163,-0.346256 3.911562,-0.778115 4.652912,-1.899311 0.40972,-0.619642 0.170963,-1.878716 0.170963,-2.591882 0,-0.563795 0.158617,-1.449302 -0.170963,-1.943212 -0.421554,-0.631738 -4.008283,-0.716894 -4.48195,-0.118848 -0.344907,0.43548 -0.170962,1.376482 -0.170962,1.895722 v 4.657531"
           id="path65-9" /><path
           style="fill:url(#linearGradient98-7);fill-opacity:1;stroke:none;stroke-width:0.166341"
           d="m 24.40684,25.588857 c 1.37802,-0.504529 4.160633,-2.086529 4.723505,-3.508038 0.312452,-0.789091 0.10037,-1.974815 0.10037,-2.812901 0,-0.684023 0.211966,-1.83006 -0.19612,-2.422973 -0.454232,-0.659961 -3.951059,-0.740076 -4.456794,-0.114999 -0.407888,0.504138 -0.170961,1.76019 -0.170961,2.371631 v 6.48728"
           id="path54-7" /><path
           style="fill:url(#linearGradient92-4);fill-opacity:1;stroke:none;stroke-width:0.166341"
           d="m 43.203316,15.608426 c -0.900331,1.056319 -2.473059,2.641875 -2.80456,3.992173 -0.394061,1.60513 0.378295,2.991916 0.782038,4.491193 0.34009,1.262916 0.328679,2.703146 0.142851,3.992171 -0.985488,6.835923 -7.730026,9.315067 -13.756335,9.315067 v -0.166338 c 4.926274,-5.03e-4 10.724253,-2.927581 12.116546,-7.984348 0.790538,-2.871219 0.15191,-5.769007 0.02634,-8.649699 -0.805501,0.375633 -1.36902,1.043187 -1.996086,1.662759 -0.768288,0.759104 -1.937114,1.442651 -2.492925,2.376901 -1.060771,1.783023 -0.334864,5.579131 -0.334864,7.604168 h -0.166334 l -0.332684,-6.819955 c -1.155294,0.488397 -4.215561,2.197153 -4.723632,3.36171 -0.544848,1.248864 -0.266582,3.123776 -0.266582,4.456293 h -0.166343 l -0.166341,-4.158515 c -1.103318,0.252444 -4.335788,1.489489 -4.985594,2.413603 -0.318264,0.452599 -0.268803,1.36924 -0.337302,1.911251 h -0.16634 l -0.166341,-1.829747 c -3.204617,1.042372 -6.007649,1.306754 -9.315074,0.66536 1.017588,2.403349 3.897546,4.385302 6.154605,5.529797 8.844687,4.484919 20.750317,0.48956 24.00835,-9.189286 1.195991,-3.553 1.938642,-10.011789 -1.053361,-12.974558"
           id="path53-9" /><path
           style="fill:url(#linearGradient96-6);fill-opacity:1;stroke:none;stroke-width:0.166341"
           d="m 30.395098,11.616252 v 9.481406 c 2.235361,-1.574616 4.657532,-4.204512 4.657532,-6.986298 0,-0.578161 0.245868,-1.918174 -0.266708,-2.324148 -0.805556,-0.63801 -3.380357,-0.17096 -4.390824,-0.17096"
           id="path47-7" /><path
           style="fill:url(#linearGradient90-0);fill-opacity:1;stroke:none;stroke-width:0.166341"
           d="M 16.42249,28.41664 C 15.668435,26.099232 15.039901,23.730089 15.286484,21.263997 15.949883,14.629093 21.63183,9.1227907 28.232671,8.4840187 c 2.229795,-0.215785 4.548472,0.04738 6.653621,0.812453 1.177841,0.428064 2.280447,1.2105883 3.493149,1.4880783 L 37.048715,7.9567617 C 35.180166,6.9736127 33.317867,5.9640677 31.2268,5.5364797 23.775057,4.0127237 16.101219,7.3909887 12.407862,14.11136 c -1.807023,3.288039 -2.394505,7.025672 -0.879709,10.479447 0.944964,2.154522 2.41939,3.80508 4.894337,3.825833"
           id="path46-1" /><path
           style="fill:url(#linearGradient94-3);stroke:none;stroke-width:0.69863;stroke-dasharray:none;stroke-opacity:1"
           d="m 38.379441,8.4557827 v 0.166341 c 0.474622,0.33994 1.40449,0.774352 1.593838,1.361405 0.188783,0.5853003 -0.464481,1.4706783 -0.725682,1.9654053 -0.950835,1.800911 -2.070258,3.538208 -3.305763,5.156554 -4.022123,5.268426 -9.923111,10.668067 -16.525209,12.326647 -3.325885,0.835533 -7.693021,0.112454 -8.816052,-3.67694 h -0.166341 c 0.257445,5.904647 7.390769,6.1375 11.643841,4.819637 6.863708,-2.126789 12.897222,-6.826108 17.424168,-12.304961 1.484917,-1.797154 3.261899,-3.84183 4.200097,-5.988256 l 2.495107,1.330724 -0.499022,-8.9823873 -7.318982,3.825831"
           id="path1-0" /><text
           xml:space="preserve"
           style="font-style:normal;font-variant:normal;font-weight:bold;font-stretch:normal;font-size:19.5803px;line-height:0;font-family:Arial;-inkscape-font-specification:'Arial Bold';text-align:center;letter-spacing:0.0262236px;word-spacing:0.0131118px;text-anchor:middle;fill:url(#linearGradient105-1);stroke:none;stroke-width:0.262236;stroke-dasharray:none;stroke-opacity:1"
           x="75.992104"
           y="30.869907"
           id="text103-6"><tspan
             sodipodi:role="line"
             id="tspan103-9"
             x="76.005219"
             y="30.869907"
             style="fill:url(#linearGradient105-1);stroke-width:0.262236">Invest</tspan></text><text
           xml:space="preserve"
           style="font-style:normal;font-variant:normal;font-weight:bold;font-stretch:normal;font-size:19.5803px;line-height:0;font-family:Arial;-inkscape-font-specification:'Arial Bold';text-align:center;letter-spacing:0.0262236px;word-spacing:0.0131118px;text-anchor:middle;fill:url(#linearGradient108-2);fill-opacity:1;stroke:none;stroke-width:0.262236;stroke-dasharray:none;stroke-opacity:1"
           x="123.00645"
           y="30.869907"
           id="text104-6"><tspan
             sodipodi:role="line"
             id="tspan104-5"
             x="123.01956"
             y="30.869907"
             style="fill:url(#linearGradient108-2);stroke-width:0.262236">ilize</tspan></text><text
           xml:space="preserve"
           style="font-style:normal;font-variant:normal;font-weight:bold;font-stretch:normal;font-size:4.80191px;line-height:0;font-family:Arial;-inkscape-font-specification:'Arial Bold';text-align:center;letter-spacing:0.00643117px;word-spacing:0.00321556px;text-anchor:middle;fill:#868789;fill-opacity:1;stroke:none;stroke-width:0.0643117;stroke-dasharray:none;stroke-opacity:1"
           x="92.9897"
           y="37.012108"
           id="text108-9"><tspan
             sodipodi:role="line"
             id="tspan108-7"
             x="92.992912"
             y="37.012108"
             style="fill:#868789;fill-opacity:1;stroke-width:0.0643117">SEU GUIA DE FINANÇAS</tspan></text><rect
           style="fill:#868789;fill-opacity:1;stroke:none;stroke-width:0.0811618;stroke-dasharray:none;stroke-opacity:1"
           id="rect108-4"
           width="12.337852"
           height="0.88916427"
           x="122.93221"
           y="34.999184"
           ry="0.44458219" /><rect
           style="fill:#868789;fill-opacity:1;stroke:none;stroke-width:0.0811618;stroke-dasharray:none;stroke-opacity:1"
           id="rect109-0"
           width="12.337852"
           height="0.88916427"
           x="50.953297"
           y="35.026436"
           ry="0.44458219" /></g></g></g></svg>
