<?xml version="1.0" encoding="UTF-8" standalone="no"?>
<!-- Created with Inkscape (http://www.inkscape.org/) -->

<svg
   width="568"
   height="219"
   viewBox="0 0 150.28314 57.943764"
   version="1.1"
   id="svg1"
   xml:space="preserve"
   inkscape:export-filename="logo.png"
   inkscape:export-xdpi="96"
   inkscape:export-ydpi="96"
   inkscape:version="1.3 (0e150ed6c4, 2023-07-21)"
   sodipodi:docname="logo.svg"
   xmlns:inkscape="http://www.inkscape.org/namespaces/inkscape"
   xmlns:sodipodi="http://sodipodi.sourceforge.net/DTD/sodipodi-0.dtd"
   xmlns:xlink="http://www.w3.org/1999/xlink"
   xmlns="http://www.w3.org/2000/svg"
   xmlns:svg="http://www.w3.org/2000/svg"><sodipodi:namedview
     id="namedview1"
     pagecolor="#ffffff"
     bordercolor="#000000"
     borderopacity="0.25"
     inkscape:showpageshadow="2"
     inkscape:pageopacity="0.0"
     inkscape:pagecheckerboard="0"
     inkscape:deskcolor="#d1d1d1"
     inkscape:document-units="mm"
     inkscape:zoom="0.45344416"
     inkscape:cx="184.14616"
     inkscape:cy="254.71714"
     inkscape:window-width="1366"
     inkscape:window-height="705"
     inkscape:window-x="-8"
     inkscape:window-y="-8"
     inkscape:window-maximized="1"
     inkscape:current-layer="g22" /><defs
     id="defs1"><linearGradient
       id="linearGradient5"
       inkscape:collect="always"><stop
         style="stop-color:#7c3aed;stop-opacity:1;"
         offset="0"
         id="stop5" /><stop
         style="stop-color:#020103;stop-opacity:0.97489542;"
         offset="1"
         id="stop6" /></linearGradient><linearGradient
       inkscape:collect="always"
       xlink:href="#linearGradient5"
       id="linearGradient6"
       x1="587.07294"
       y1="-173.04199"
       x2="572.22467"
       y2="-148.02457"
       gradientUnits="userSpaceOnUse"
       gradientTransform="matrix(0.99931735,0,0,1.0556175,0.39657133,8.1808797)" /></defs><g
     inkscape:label="Camada 1"
     inkscape:groupmode="layer"
     id="layer1"><g
       id="g22"><g
         id="g26"
         transform="matrix(0.64960273,0,0,0.64960273,-9.8315508,-62.808861)"><g
           id="g25"
           transform="matrix(2.5514466,-0.36065018,0.36065018,2.5514466,-1377.2971,762.59426)"><path
             id="path3"
             style="fill:#3a5bed;fill-opacity:1;stroke:none;stroke-width:0.994044"
             d="m 576.81851,-169.35376 c -0.85017,8.8e-4 0.006,0.002 -1.19222,0.001 1.5581,0.2285 2.43616,-0.0906 2.81373,0.70968 l 0.67295,1.42637 c -0.007,1.46146 -0.21916,2.99038 -0.42374,4.40697 -0.65492,4.53477 -2.05489,9.18057 -4.36666,12.04474 -0.61683,0.76423 -1.28832,1.36712 -2.00867,1.8154 -0.454,0.28253 -0.79402,0.4248 -1.28519,0.69453 2.10193,0.14787 2.45523,-0.0501 3.37654,-0.37001 0.66372,-0.23045 1.27948,-0.51149 1.95285,-0.88366 3.77946,-1.88378 5.95405,-7.13147 6.8094,-13.62243 0.18207,-1.38168 0.27706,-2.7768 0.37414,-4.17804 l 2.47582,-0.0517 1.08055,-0.0796 -1.20251,-1.91978 z"
             sodipodi:nodetypes="ccscssscscsccccc" /><path
             style="fill:#3a5bed;fill-opacity:1;stroke:none;stroke-width:0.729353;stroke-dasharray:none;stroke-opacity:1"
             id="path9"
             sodipodi:type="arc"
             sodipodi:cx="580.75616"
             sodipodi:cy="-172.813"
             sodipodi:rx="2.9975686"
             sodipodi:ry="2.9975686"
             sodipodi:start="0"
             sodipodi:end="6.2701777"
             sodipodi:open="true"
             sodipodi:arc-type="arc"
             d="m 583.75373,-172.813 a 2.9975686,2.9975686 0 0 1 -2.98782,2.99755 2.9975686,2.9975686 0 0 1 -3.00725,-2.97806 2.9975686,2.9975686 0 0 1 2.96826,-3.01692 2.9975686,2.9975686 0 0 1 3.02656,2.95844" /><path
             style="fill:url(#linearGradient6);stroke:#ffffff;stroke-width:0.721765;stroke-dasharray:none;stroke-opacity:1"
             d="m 591.74036,-165.15455 -4.96555,-10.76533 -0.0398,-0.004 -5.48199,6.06084 c -0.88974,0.98369 -1.96656,1.92316 -2.75086,3.09059 l 4.07646,0.51738 c -0.27355,1.53666 -0.79359,3.11025 -1.28467,4.56662 -1.57208,4.66212 -4.01513,9.31625 -7.17616,11.94312 -0.84343,0.70092 -1.72015,1.22251 -2.62442,1.57364 -0.56991,0.22129 -0.98408,0.31423 -1.59412,0.51584 2.374,0.50745 2.81357,0.35851 3.92403,0.17611 0.79999,-0.13138 1.55422,-0.32434 2.39099,-0.60325 4.65929,-1.34954 8.09723,-6.50745 10.2537,-13.1944 0.45903,-1.42342 0.82071,-2.87521 1.18623,-4.33343 l 2.83753,0.3602 1.24879,0.0971"
             id="path5"
             sodipodi:nodetypes="cccsccssscscsccc" /></g><text
           xml:space="preserve"
           style="font-weight:900;font-size:29.0918px;line-height:0;font-family:Arial;-inkscape-font-specification:'Arial Heavy';text-align:center;letter-spacing:0.0606078px;word-spacing:0.0303039px;text-anchor:middle;fill:#3a5bed;fill-opacity:1;stroke:none;stroke-width:1.60974;stroke-dasharray:none;stroke-opacity:1"
           x="153.78465"
           y="151.69975"
           id="text25"><tspan
             sodipodi:role="line"
             id="tspan25"
             style="font-style:normal;font-variant:normal;font-weight:normal;font-stretch:normal;font-family:Arial;-inkscape-font-specification:Arial;stroke-width:1.60974"
             x="153.81496"
             y="151.69975">INVESTILIZE</tspan></text></g></g></g></svg>
