<?xml version="1.0" encoding="UTF-8" standalone="no"?>
<!-- Created with Inkscape (http://www.inkscape.org/) -->

<svg
   xmlns:dc="http://purl.org/dc/elements/1.1/"
   xmlns:cc="http://creativecommons.org/ns#"
   xmlns:rdf="http://www.w3.org/1999/02/22-rdf-syntax-ns#"
   xmlns:svg="http://www.w3.org/2000/svg"
   xmlns="http://www.w3.org/2000/svg"
   xmlns:sodipodi="http://sodipodi.sourceforge.net/DTD/sodipodi-0.dtd"
   xmlns:inkscape="http://www.inkscape.org/namespaces/inkscape"
   version="1.1"
   id="svg2"
   xml:space="preserve"
   width="700"
   height="700"
   viewBox="0 0 700 700"
   sodipodi:docname="banco-central-do-brasil-logo.svg"
   inkscape:export-filename="G:\Users\suitedoalex\sites\banco-central-do-brasil-logo-0.png"
   inkscape:export-xdpi="561.73712"
   inkscape:export-ydpi="561.73712"
   inkscape:version="0.92.4 (5da689c313, 2019-01-14)"><metadata
     id="metadata8"><rdf:RDF><cc:Work
         rdf:about=""><dc:format>image/svg+xml</dc:format><dc:type
           rdf:resource="http://purl.org/dc/dcmitype/StillImage" /><dc:title></dc:title></cc:Work></rdf:RDF></metadata><defs
     id="defs6"><clipPath
       clipPathUnits="userSpaceOnUse"
       id="clipPath20"><path
         d="M -1,709 H 823 V -2 H -1 Z"
         id="path18"
         inkscape:connector-curvature="0" /></clipPath><clipPath
       clipPathUnits="userSpaceOnUse"
       id="clipPath26"><path
         d="m 0,708.015 h 822 v -708 H 0 Z"
         id="path24"
         inkscape:connector-curvature="0" /></clipPath><clipPath
       clipPathUnits="userSpaceOnUse"
       id="clipPath38"><path
         d="M 396.7,721.68 H 836.07 V -15.33 H 396.7 Z"
         id="path36"
         inkscape:connector-curvature="0"
         style="clip-rule:evenodd" /></clipPath><clipPath
       clipPathUnits="userSpaceOnUse"
       id="clipPath44"><path
         d="M -1,709 H 823 V -2 H -1 Z"
         id="path42"
         inkscape:connector-curvature="0" /></clipPath><clipPath
       clipPathUnits="userSpaceOnUse"
       id="clipPath50"><path
         d="m 0,708.015 h 822 v -708 H 0 Z"
         id="path48"
         inkscape:connector-curvature="0" /></clipPath><clipPath
       clipPathUnits="userSpaceOnUse"
       id="clipPath58"><path
         d="m 0,0.015 h 822 v 708 H 0 Z"
         id="path56"
         inkscape:connector-curvature="0" /></clipPath><clipPath
       clipPathUnits="userSpaceOnUse"
       id="clipPath66"><path
         d="M 396.7,721.68 H 836.07 V -15.33 H 396.7 Z"
         id="path64"
         inkscape:connector-curvature="0"
         style="clip-rule:evenodd" /></clipPath><clipPath
       clipPathUnits="userSpaceOnUse"
       id="clipPath72"><path
         d="M -1,709 H 823 V -2 H -1 Z"
         id="path70"
         inkscape:connector-curvature="0" /></clipPath><clipPath
       clipPathUnits="userSpaceOnUse"
       id="clipPath78"><path
         d="m 0,708.015 h 822 v -708 H 0 Z"
         id="path76"
         inkscape:connector-curvature="0" /></clipPath><clipPath
       clipPathUnits="userSpaceOnUse"
       id="clipPath138"><path
         d="M -1,709 H 823 V -2 H -1 Z"
         id="path136"
         inkscape:connector-curvature="0" /></clipPath><clipPath
       clipPathUnits="userSpaceOnUse"
       id="clipPath144"><path
         d="m 0,708.015 h 822 v -708 H 0 Z"
         id="path142"
         inkscape:connector-curvature="0" /></clipPath><clipPath
       clipPathUnits="userSpaceOnUse"
       id="clipPath210"><path
         d="M -1,709 H 823 V -2 H -1 Z"
         id="path208"
         inkscape:connector-curvature="0" /></clipPath><clipPath
       clipPathUnits="userSpaceOnUse"
       id="clipPath216"><path
         d="m 0,708.015 h 822 v -708 H 0 Z"
         id="path214"
         inkscape:connector-curvature="0" /></clipPath></defs><sodipodi:namedview
     pagecolor="#ffffff"
     bordercolor="#666666"
     borderopacity="1"
     objecttolerance="10"
     gridtolerance="10"
     guidetolerance="10"
     inkscape:pageopacity="0"
     inkscape:pageshadow="2"
     inkscape:window-width="1600"
     inkscape:window-height="837"
     id="namedview4"
     showgrid="false"
     inkscape:zoom="0.25"
     inkscape:cx="1053.1661"
     inkscape:cy="730.07522"
     inkscape:window-x="-8"
     inkscape:window-y="-8"
     inkscape:window-maximized="1"
     inkscape:current-layer="g10" /><g
     id="g10"
     inkscape:groupmode="layer"
     inkscape:label="Cartilha_Dinheiro_no_Brasil"
     transform="matrix(1.3333333,0,0,-1.3333333,0,700)"><path
       d="m 248.22805,-100.30271 h 5.21796 l -0.18108,14.553105 h 0.062 l 7.43862,-14.553105 h 7.05258 v 21.295947 h -5.18937 l 0.0905,-14.462568 h -0.062 l -7.20031,14.462568 h -7.2289 v -21.295947"
       style="fill:#137a97;fill-opacity:1;fill-rule:evenodd;stroke:none;stroke-width:4.7652607"
       id="path84"
       inkscape:connector-curvature="0"
       inkscape:export-filename="G:\Users\suitedoalex\sites\banco-central-do-brasil-logo-4.png"
       inkscape:export-xdpi="57.465298"
       inkscape:export-ydpi="57.465298" /><path
       d="m 275.60448,-100.30271 h 5.67065 v 17.083455 h 5.25132 v 4.212492 h -16.17329 v -4.212492 h 5.25132 v -17.083455"
       style="fill:#137a97;fill-opacity:1;fill-rule:evenodd;stroke:none;stroke-width:4.7652607"
       id="path86"
       inkscape:connector-curvature="0"
       inkscape:export-filename="G:\Users\suitedoalex\sites\banco-central-do-brasil-logo-4.png"
       inkscape:export-xdpi="57.465298"
       inkscape:export-ydpi="57.465298" /><path
       d="m 289.04727,-100.30271 h 5.67543 v 8.420214 h 1.18655 c 2.10624,0 2.84009,-0.91493 3.99805,-4.574655 l 1.21991,-3.845559 h 5.91845 l -2.07289,5.799316 c -1.06742,2.592305 -1.19131,4.207727 -3.02117,4.693782 v 0.06197 c 2.74479,0.643312 4.0886,2.535117 4.0886,5.370446 0,3.659717 -3.07836,5.370451 -6.86675,5.370451 h -10.12618 z m 5.67543,17.269299 h 1.49153 c 2.16819,0 4.15054,-0.366922 4.15054,-2.349271 0,-2.41122 -2.31592,-2.473172 -4.15054,-2.473172 h -1.49153 v 4.822443"
       style="fill:#137a97;fill-opacity:1;fill-rule:evenodd;stroke:none;stroke-width:4.7652607"
       id="path88"
       inkscape:connector-curvature="0"
       inkscape:export-filename="G:\Users\suitedoalex\sites\banco-central-do-brasil-logo-4.png"
       inkscape:export-xdpi="57.465298"
       inkscape:export-ydpi="57.465298" /><path
       d="m 112.77551,-100.30271 h 5.7612 l 1.68214,4.546058 h 7.9961 l 1.58207,-4.546058 h 6.22343 l -8.20578,21.295947 h -6.95728 z m 14.09564,8.572699 h -5.34186 l 2.74479,8.329678 h 0.062 l 2.53512,-8.329678"
       style="fill:#137a97;fill-opacity:1;fill-rule:evenodd;stroke:none;stroke-width:4.7652607"
       id="path90"
       inkscape:connector-curvature="0"
       inkscape:export-filename="G:\Users\suitedoalex\sites\banco-central-do-brasil-logo-4.png"
       inkscape:export-xdpi="57.465298"
       inkscape:export-ydpi="57.465298" /><path
       d="m 94.896256,-100.30271 h 8.968224 c 3.8122,0 8.30108,1.067417 8.30108,6.16148 0,2.592298 -1.4677,4.121946 -4.30303,4.698547 v 0.06197 c 2.37786,0.795797 3.75026,2.287327 3.75026,4.974936 0,3.659718 -2.95447,5.399038 -6.91916,5.399038 h -9.797374 z m 5.675424,9.030167 h 1.73932 c 1.95376,0 4.17913,-0.214437 4.17913,-2.530352 0,-2.168195 -2.16819,-2.473171 -4.24108,-2.473171 h -1.67737 z m 0,8.239132 h 1.64878 c 1.89181,0 3.72167,-0.185844 3.72167,-2.134834 0,-1.801266 -1.92517,-2.258734 -3.78361,-2.258734 h -1.58684 v 4.393568"
       style="fill:#137a97;fill-opacity:1;fill-rule:evenodd;stroke:none;stroke-width:4.7652607"
       id="path92"
       inkscape:connector-curvature="0"
       inkscape:export-filename="G:\Users\suitedoalex\sites\banco-central-do-brasil-logo-4.png"
       inkscape:export-xdpi="57.465298"
       inkscape:export-ydpi="57.465298" /><path
       d="m 137.31184,-100.30271 h 5.21796 l -0.18585,14.553105 h 0.062 l 7.44334,-14.553105 h 7.04782 v 21.295947 h -5.18461 l 0.0906,-14.462568 h -0.062 l -7.20026,14.462568 h -7.2289 v -21.295947"
       style="fill:#137a97;fill-opacity:1;fill-rule:evenodd;stroke:none;stroke-width:4.7652607"
       id="path94"
       inkscape:connector-curvature="0"
       inkscape:export-filename="G:\Users\suitedoalex\sites\banco-central-do-brasil-logo-4.png"
       inkscape:export-xdpi="57.465298"
       inkscape:export-ydpi="57.465298" /><path
       d="m 177.74984,-95.361137 c -1.55824,-0.609953 -3.45005,-1.096014 -5.3085,-1.096014 -4.15054,0 -7.10977,2.530358 -7.10977,6.709491 0,3.969462 2.62089,6.895328 6.65231,6.895328 1.94899,0 3.72167,-0.486055 5.55153,-1.491523 l 0.45746,4.603241 c -2.0443,0.609953 -4.15054,1.100774 -6.31397,1.100774 -7.02399,0 -12.2086,-3.693078 -12.2086,-11.10782 0,-8.053289 6.56176,-10.92198 12.23719,-10.92198 2.89728,0 4.69855,0.45746 6.31397,0.857746 l -0.27162,4.450757"
       style="fill:#137a97;fill-opacity:1;fill-rule:evenodd;stroke:none;stroke-width:4.7652607"
       id="path96"
       inkscape:connector-curvature="0"
       inkscape:export-filename="G:\Users\suitedoalex\sites\banco-central-do-brasil-logo-4.png"
       inkscape:export-xdpi="57.465298"
       inkscape:export-ydpi="57.465298" /><path
       d="m 178.58376,-89.65712 c 0,-6.771438 3.72167,-11.01252 10.67895,-11.01252 6.95728,0 10.67895,4.241082 10.67895,11.01252 0,6.838147 -3.65972,11.01728 -10.67895,11.01728 -7.01447,0 -10.67895,-4.179133 -10.67895,-11.01728 z m 5.86127,0 c 0,3.693078 1.3724,6.804788 4.81768,6.804788 3.45005,0 4.82245,-3.11171 4.82245,-6.804788 0,-3.507235 -1.3724,-6.800031 -4.82245,-6.800031 -3.44528,0 -4.81768,3.292796 -4.81768,6.800031"
       style="fill:#137a97;fill-opacity:1;fill-rule:evenodd;stroke:none;stroke-width:4.7652607"
       id="path98"
       inkscape:connector-curvature="0"
       inkscape:export-filename="G:\Users\suitedoalex\sites\banco-central-do-brasil-logo-4.png"
       inkscape:export-xdpi="57.465298"
       inkscape:export-ydpi="57.465298" /><path
       d="m 227.06553,-95.361137 c -1.55348,-0.609953 -3.44529,-1.096014 -5.3085,-1.096014 -4.14578,0 -7.10978,2.530358 -7.10978,6.709491 0,3.969462 2.62567,6.895328 6.65231,6.895328 1.95376,0 3.72644,-0.486055 5.55153,-1.491523 l 0.46223,4.603241 c -2.0443,0.609953 -4.15054,1.100774 -6.31874,1.100774 -7.01446,0 -12.20383,-3.693078 -12.20383,-11.10782 0,-8.053289 6.557,-10.92198 12.23719,-10.92198 2.89728,0 4.69378,0.45746 6.31397,0.857746 l -0.27638,4.450757"
       style="fill:#137a97;fill-opacity:1;fill-rule:evenodd;stroke:none;stroke-width:4.7652607"
       id="path100"
       inkscape:connector-curvature="0"
       inkscape:export-filename="G:\Users\suitedoalex\sites\banco-central-do-brasil-logo-4.png"
       inkscape:export-xdpi="57.465298"
       inkscape:export-ydpi="57.465298" /><path
       d="m 229.91515,-100.30271 h 15.34414 v 4.026644 h -9.66871 v 4.822445 h 8.81573 v 4.026642 h -8.81573 v 4.393568 h 9.33514 v 4.026648 h -15.01057 v -21.295947"
       style="fill:#137a97;fill-opacity:1;fill-rule:evenodd;stroke:none;stroke-width:4.7652607"
       id="path102"
       inkscape:connector-curvature="0"
       inkscape:export-filename="G:\Users\suitedoalex\sites\banco-central-do-brasil-logo-4.png"
       inkscape:export-xdpi="57.465298"
       inkscape:export-ydpi="57.465298" /><path
       d="m 307.66038,-100.30271 h 5.7612 l 1.68214,4.546058 h 7.99611 l 1.58206,-4.546058 h 6.22343 l -8.20577,21.295947 h -6.95728 z m 14.09565,8.572699 h -5.34186 l 2.74479,8.329678 h 0.0667 l 2.53036,-8.329678"
       style="fill:#137a97;fill-opacity:1;fill-rule:evenodd;stroke:none;stroke-width:4.7652607"
       id="path104"
       inkscape:connector-curvature="0"
       inkscape:export-filename="G:\Users\suitedoalex\sites\banco-central-do-brasil-logo-4.png"
       inkscape:export-xdpi="57.465298"
       inkscape:export-ydpi="57.465298" /><path
       d="m 332.26819,-100.30271 h 14.46256 v 4.212488 h -8.78714 v 17.083459 h -5.67542 v -21.295947"
       style="fill:#137a97;fill-opacity:1;fill-rule:evenodd;stroke:none;stroke-width:4.7652607"
       id="path106"
       inkscape:connector-curvature="0"
       inkscape:export-filename="G:\Users\suitedoalex\sites\banco-central-do-brasil-logo-4.png"
       inkscape:export-xdpi="57.465298"
       inkscape:export-ydpi="57.465298" /><path
       d="m 355.58461,-100.30271 h 7.74832 c 7.2623,0 12.60411,2.778144 12.60411,10.740894 0,8.234367 -5.18937,10.555053 -12.60411,10.555053 h -7.74832 z m 5.67543,17.083455 h 2.19678 c 4.15054,0 6.61895,-2.196786 6.61895,-6.437865 0,-4.241086 -2.37787,-6.433102 -6.61895,-6.433102 h -2.19678 v 12.870967"
       style="fill:#137a97;fill-opacity:1;fill-rule:evenodd;stroke:none;stroke-width:4.7652607"
       id="path108"
       inkscape:connector-curvature="0"
       inkscape:export-filename="G:\Users\suitedoalex\sites\banco-central-do-brasil-logo-4.png"
       inkscape:export-xdpi="57.465298"
       inkscape:export-ydpi="57.465298" /><path
       d="m 377.16647,-89.65712 c 0,-6.771438 3.72644,-11.01252 10.67896,-11.01252 6.95728,0 10.67894,4.241082 10.67894,11.01252 0,6.838147 -3.65972,11.01728 -10.67894,11.01728 -7.01442,0 -10.67896,-4.179133 -10.67896,-11.01728 z m 5.86128,0 c 0,3.693078 1.36763,6.804788 4.81768,6.804788 3.44528,0 4.82249,-3.11171 4.82249,-6.804788 0,-3.507235 -1.37721,-6.800031 -4.82249,-6.800031 -3.45005,0 -4.81768,3.292796 -4.81768,6.800031"
       style="fill:#137a97;fill-opacity:1;fill-rule:evenodd;stroke:none;stroke-width:4.7652607"
       id="path110"
       inkscape:connector-curvature="0"
       inkscape:export-filename="G:\Users\suitedoalex\sites\banco-central-do-brasil-logo-4.png"
       inkscape:export-xdpi="57.465298"
       inkscape:export-ydpi="57.465298" /><path
       d="m 408.34081,-100.30271 h 8.96822 c 3.81221,0 8.29637,1.067417 8.29637,6.16148 0,2.592298 -1.46299,4.121946 -4.29831,4.698547 v 0.06197 c 2.37786,0.795797 3.7455,2.287327 3.7455,4.974936 0,3.659718 -2.95447,5.399038 -6.91917,5.399038 h -9.79261 z m 5.67071,9.030167 h 1.73928 c 1.95375,0 4.17917,-0.214437 4.17917,-2.530352 0,-2.168195 -2.16824,-2.473171 -4.24113,-2.473171 h -1.67732 z m 0,8.239132 h 1.64873 c 1.89181,0 3.72167,-0.185844 3.72167,-2.134834 0,-1.801266 -1.9204,-2.258734 -3.78357,-2.258734 h -1.58683 v 4.393568"
       style="fill:#137a97;fill-opacity:1;fill-rule:evenodd;stroke:none;stroke-width:4.7652607"
       id="path112"
       inkscape:connector-curvature="0"
       inkscape:export-filename="G:\Users\suitedoalex\sites\banco-central-do-brasil-logo-4.png"
       inkscape:export-xdpi="57.465298"
       inkscape:export-ydpi="57.465298" /><path
       d="m 428.20723,-100.30271 h 5.67543 v 8.420214 h 1.18655 c 2.1062,0 2.83528,-0.91493 3.998,-4.574655 l 1.21996,-3.845559 h 5.91845 l -2.07289,5.799316 c -1.06746,2.592305 -1.19136,4.207727 -3.02122,4.693782 v 0.06197 c 2.74479,0.643312 4.08859,2.535117 4.08859,5.370446 0,3.659717 -3.08307,5.370451 -6.86674,5.370451 h -10.12613 z m 5.67543,17.269299 h 1.49147 c 2.16825,0 4.15055,-0.366922 4.15055,-2.349271 0,-2.41122 -2.31592,-2.473172 -4.15055,-2.473172 h -1.49147 v 4.822443"
       style="fill:#137a97;fill-opacity:1;fill-rule:evenodd;stroke:none;stroke-width:4.7652607"
       id="path114"
       inkscape:connector-curvature="0"
       inkscape:export-filename="G:\Users\suitedoalex\sites\banco-central-do-brasil-logo-4.png"
       inkscape:export-xdpi="57.465298"
       inkscape:export-ydpi="57.465298" /><path
       d="m 446.80124,-100.30271 h 5.76601 l 1.67732,4.546058 h 7.99611 l 1.58683,-4.546058 h 6.22348 l -8.20578,21.295947 h -6.95733 z m 14.10045,8.572699 h -5.34191 l 2.74479,8.329678 h 0.062 l 2.53517,-8.329678"
       style="fill:#137a97;fill-opacity:1;fill-rule:evenodd;stroke:none;stroke-width:4.7652607"
       id="path116"
       inkscape:connector-curvature="0"
       inkscape:export-filename="G:\Users\suitedoalex\sites\banco-central-do-brasil-logo-4.png"
       inkscape:export-xdpi="57.465298"
       inkscape:export-ydpi="57.465298" /><path
       d="m 489.09293,-79.006763 h 5.67542 v -21.295947 h -5.67542 z"
       style="fill:#137a97;fill-opacity:1;fill-rule:nonzero;stroke:none;stroke-width:4.7652607"
       id="path118"
       inkscape:connector-curvature="0"
       inkscape:export-filename="G:\Users\suitedoalex\sites\banco-central-do-brasil-logo-4.png"
       inkscape:export-xdpi="57.465298"
       inkscape:export-ydpi="57.465298" /><path
       d="m 498.62344,-100.30271 h 14.46257 v 4.212488 h -8.78714 v 17.083459 h -5.67543 v -21.295947"
       style="fill:#137a97;fill-opacity:1;fill-rule:evenodd;stroke:none;stroke-width:4.7652607"
       id="path120"
       inkscape:connector-curvature="0"
       inkscape:export-filename="G:\Users\suitedoalex\sites\banco-central-do-brasil-logo-4.png"
       inkscape:export-xdpi="57.465298"
       inkscape:export-ydpi="57.465298" /><path
       d="m 470.84197,-99.754707 c 1.89181,-0.609953 4.36499,-0.914933 6.34733,-0.914933 4.72719,0 9.3685,1.496293 9.3685,7.01923 0,7.686368 -10.06899,5.370447 -10.06899,8.815735 0,1.86321 2.37787,1.982343 3.81225,1.982343 1.61543,0 3.26416,-0.304977 4.72709,-0.976876 l 0.3717,4.393571 c -1.43435,0.49082 -3.45006,0.795797 -5.49435,0.795797 -4.26968,0 -9.2732,-1.405751 -9.2732,-6.528405 0,-7.753079 10.06905,-5.25132 10.06905,-9.216016 0,-1.705961 -1.71078,-2.07289 -3.51205,-2.07289 -2.34923,0 -4.39352,0.609959 -5.85651,1.400991 l -0.49082,-4.698547"
       style="fill:#137a97;fill-opacity:1;fill-rule:evenodd;stroke:none;stroke-width:4.7652607"
       id="path122"
       inkscape:connector-curvature="0"
       inkscape:export-filename="G:\Users\suitedoalex\sites\banco-central-do-brasil-logo-4.png"
       inkscape:export-xdpi="57.465298"
       inkscape:export-ydpi="57.465298" /><path
       d="m 35.878494,-130.92428 h 21.30072 l 6.65707,6.65707 H 42.54033 l -0.0045,11.98463 h 3.993238 l 6.65707,6.6523 H 37.208202 v 15.977925 l -6.652298,-6.65707 v -3.993285 H 18.57127 v 21.300713 L 11.914,-85.659066 v -21.300724 h 11.984633 v -11.97986 h 11.979861 v -11.98463"
       style="fill:#137a97;fill-opacity:1;fill-rule:nonzero;stroke:none;stroke-width:4.7652607"
       id="path124"
       inkscape:connector-curvature="0"
       inkscape:export-filename="G:\Users\suitedoalex\sites\banco-central-do-brasil-logo-4.png"
       inkscape:export-xdpi="57.465298"
       inkscape:export-ydpi="57.465298" /><path
       d="m 59.842995,-82.995286 v 15.97315 l 6.65707,6.65707 v -15.97315 h 15.977918 l -6.661836,-6.65707 H 59.842995"
       style="fill:#137a97;fill-opacity:1;fill-rule:nonzero;stroke:none;stroke-width:4.7652607"
       id="path126"
       inkscape:connector-curvature="0"
       inkscape:export-filename="G:\Users\suitedoalex\sites\banco-central-do-brasil-logo-4.png"
       inkscape:export-xdpi="57.465298"
       inkscape:export-ydpi="57.465298" /><path
       d="m 42.54033,-60.365066 h -5.332328 v -15.97315 l 15.977922,-0.0045 -6.65707,-6.652305 h -15.97315 l -0.0045,3.988524 -6.657071,0.0045 v 5.327556 l 18.641652,18.636938 0.0045,-5.327563"
       style="fill:#137a97;fill-opacity:1;fill-rule:nonzero;stroke:none;stroke-width:4.7652607"
       id="path128"
       inkscape:connector-curvature="0"
       inkscape:export-filename="G:\Users\suitedoalex\sites\banco-central-do-brasil-logo-4.png"
       inkscape:export-xdpi="57.465298"
       inkscape:export-ydpi="57.465298" /><path
       d="m 82.477983,-105.63028 v 5.32757 h 5.322797 l -18.636933,-18.63694 h -5.327563 v 6.65707 h -3.993289 v 15.973155 l 6.65707,6.65707 v -15.977925 h 15.977918"
       style="fill:#137a97;fill-opacity:1;fill-rule:nonzero;stroke:none;stroke-width:4.7652607"
       id="path130"
       inkscape:connector-curvature="0"
       inkscape:export-filename="G:\Users\suitedoalex\sites\banco-central-do-brasil-logo-4.png"
       inkscape:export-xdpi="57.465298"
       inkscape:export-ydpi="57.465298" /><path
       d="m 239.68291,259.07141 h 34.76279 l 10.86459,10.86445 h -34.75553 v 19.55897 h 6.51746 l 10.86329,10.85654 H 241.8601 v 26.07609 L 231.00366,315.5631 v -6.51704 h -19.55923 v 34.76293 l -10.86457,-10.86446 v -34.76292 h 19.5588 v -19.55119 h 19.55152 v -19.55901"
       style="fill:#137a97;fill-opacity:1;fill-rule:nonzero;stroke:none;stroke-width:7.77693701"
       id="path124-9"
       inkscape:connector-curvature="0"
       inkscape:export-filename="G:\Users\suitedoalex\sites\banco-central-do-brasil-logo-5.png"
       inkscape:export-xdpi="71.036362"
       inkscape:export-ydpi="71.036362" /><path
       d="m 278.79282,337.29182 v 26.06839 l 10.86458,10.86428 v -26.06827 h 26.07625 l -10.87227,-10.8644 h -26.06856"
       style="fill:#137a97;fill-opacity:1;fill-rule:nonzero;stroke:none;stroke-width:7.77693701"
       id="path126-1"
       inkscape:connector-curvature="0"
       inkscape:export-filename="G:\Users\suitedoalex\sites\banco-central-do-brasil-logo-5.png"
       inkscape:export-xdpi="71.036362"
       inkscape:export-ydpi="71.036362" /><path
       d="m 250.55476,374.22449 h -8.70235 v -26.06827 l 26.07627,-0.009 -10.86459,-10.85658 h -26.06813 v 6.50929 l -10.86458,0.009 v 8.69457 l 30.42338,30.4156 v -8.69466"
       style="fill:#137a97;fill-opacity:1;fill-rule:nonzero;stroke:none;stroke-width:7.77693701"
       id="path128-0"
       inkscape:connector-curvature="0"
       inkscape:export-filename="G:\Users\suitedoalex\sites\banco-central-do-brasil-logo-5.png"
       inkscape:export-xdpi="71.036362"
       inkscape:export-ydpi="71.036362" /><path
       d="m 315.73365,300.35137 v 8.69469 h 8.68653 l -30.41525,-30.41564 h -8.69464 v 10.86441 h -6.51747 v 26.06827 l 10.86458,10.86436 v -26.07609 h 26.07625"
       style="fill:#137a97;fill-opacity:1;fill-rule:nonzero;stroke:none;stroke-width:7.77693701"
       id="path130-4"
       inkscape:connector-curvature="0"
       inkscape:export-filename="G:\Users\suitedoalex\sites\banco-central-do-brasil-logo-5.png"
       inkscape:export-xdpi="71.036362"
       inkscape:export-ydpi="71.036362" /><path
       d="m 306.63437,193.66339 h 8.40054 l -0.29069,23.42892 h 0.10259 l 11.97518,-23.42892 h 11.35405 v 34.28412 h -8.35437 l 0.14534,-23.28309 h -0.0983 l -11.5913,23.28309 h -11.6379 v -34.28412"
       style="fill:#137a97;fill-opacity:1;fill-rule:evenodd;stroke:none;stroke-width:7.67155313"
       id="path84-0-0"
       inkscape:connector-curvature="0"
       inkscape:export-filename="G:\Users\suitedoalex\sites\banco-central-do-brasil-logo-5.png"
       inkscape:export-xdpi="71.036362"
       inkscape:export-ydpi="71.036362" /><path
       d="m 350.70739,193.66339 h 9.12941 v 27.50252 h 8.45397 v 6.7816 h -26.03735 v -6.7816 h 8.45397 v -27.50252"
       style="fill:#137a97;fill-opacity:1;fill-rule:evenodd;stroke:none;stroke-width:7.67155313"
       id="path86-0-2"
       inkscape:connector-curvature="0"
       inkscape:export-filename="G:\Users\suitedoalex\sites\banco-central-do-brasil-logo-5.png"
       inkscape:export-xdpi="71.036362"
       inkscape:export-ydpi="71.036362" /><path
       d="m 372.3489,193.66339 h 9.13711 v 13.55564 h 1.91001 c 3.39082,0 4.5724,-1.47295 6.43666,-7.3647 l 1.96388,-6.19094 h 9.52782 l -3.33696,9.33626 c -1.71849,4.17334 -1.9177,6.774 -4.86351,7.55651 v 0.10003 c 4.41849,1.03567 6.582,4.0813 6.582,8.64587 0,5.89177 -4.95585,8.64581 -11.0548,8.64581 H 372.3489 Z m 9.13711,27.80172 h 2.40119 c 3.49043,0 6.68162,-0.59075 6.68162,-3.7821 0,-3.88184 -3.72854,-3.98157 -6.68162,-3.98157 h -2.40119 v 7.76367"
       style="fill:#137a97;fill-opacity:1;fill-rule:evenodd;stroke:none;stroke-width:7.67155313"
       id="path88-6-4"
       inkscape:connector-curvature="0"
       inkscape:export-filename="G:\Users\suitedoalex\sites\banco-central-do-brasil-logo-5.png"
       inkscape:export-xdpi="71.036362"
       inkscape:export-ydpi="71.036362" /><path
       d="m 88.570847,193.66339 h 9.274324 l 2.708129,7.31861 h 12.87291 l 2.54739,-7.31861 h 10.01901 l -13.21062,34.28412 H 101.58141 Z M 111.2627,207.4645 h -8.59975 l 4.41892,13.40986 h 0.0983 l 4.08165,-13.40986"
       style="fill:#137a97;fill-opacity:1;fill-rule:evenodd;stroke:none;stroke-width:7.67155313"
       id="path90-7-9"
       inkscape:connector-curvature="0"
       inkscape:export-filename="G:\Users\suitedoalex\sites\banco-central-do-brasil-logo-5.png"
       inkscape:export-xdpi="71.036362"
       inkscape:export-ydpi="71.036362" /><path
       d="m 59.78689,193.66339 h 14.43793 c 6.137004,0 13.363665,1.71841 13.363665,9.91931 0,4.1733 -2.362717,6.63587 -6.927426,7.56413 v 0.10003 c 3.828148,1.28113 6.037829,3.68232 6.037829,8.00904 0,5.89175 -4.756221,8.69192 -11.139027,8.69192 H 59.78689 Z m 9.136671,14.53758 h 2.800034 c 3.145873,0 6.728219,-0.3454 6.728219,-4.0736 0,-3.49056 -3.490434,-3.98153 -6.827395,-3.98153 h -2.700858 z m 0,13.26414 h 2.654262 c 3.045844,0 5.991659,-0.29923 5.991659,-3.43686 0,-2.89985 -3.099279,-3.63634 -6.090835,-3.63634 h -2.555086 v 7.0732"
       style="fill:#137a97;fill-opacity:1;fill-rule:evenodd;stroke:none;stroke-width:7.67155313"
       id="path92-0-2"
       inkscape:connector-curvature="0"
       inkscape:export-filename="G:\Users\suitedoalex\sites\banco-central-do-brasil-logo-5.png"
       inkscape:export-xdpi="71.036362"
       inkscape:export-ydpi="71.036362" /><path
       d="m 128.07147,193.66339 h 8.40054 l -0.29496,23.42892 h 0.0983 l 11.98331,-23.42892 h 11.34635 v 34.28412 h -8.3471 l 0.14535,-23.28309 h -0.10259 l -11.5913,23.28309 h -11.63832 v -34.28412"
       style="fill:#137a97;fill-opacity:1;fill-rule:evenodd;stroke:none;stroke-width:7.67155313"
       id="path94-2-2"
       inkscape:connector-curvature="0"
       inkscape:export-filename="G:\Users\suitedoalex\sites\banco-central-do-brasil-logo-5.png"
       inkscape:export-xdpi="71.036362"
       inkscape:export-ydpi="71.036362" /><path
       d="m 193.17213,201.61879 c -2.50849,-0.98198 -5.5539,-1.76446 -8.54631,-1.76446 -6.68118,0 -11.44553,4.07357 -11.44553,10.80157 0,6.39037 4.21887,11.10068 10.7094,11.10068 3.13776,0 5.99166,-0.78243 8.93746,-2.40115 l 0.73614,7.41074 c -3.29079,0.98194 -6.68205,1.7721 -10.16478,1.7721 -11.30788,0 -19.65456,-5.94545 -19.65456,-17.88237 0,-12.96494 10.56362,-17.58322 19.70073,-17.58322 4.6643,0 7.56395,0.73644 10.16477,1.38088 l -0.4386,7.16523"
       style="fill:#137a97;fill-opacity:1;fill-rule:evenodd;stroke:none;stroke-width:7.67155313"
       id="path96-2-9"
       inkscape:connector-curvature="0"
       inkscape:export-filename="G:\Users\suitedoalex\sites\banco-central-do-brasil-logo-5.png"
       inkscape:export-xdpi="71.036362"
       inkscape:export-ydpi="71.036362" /><path
       d="m 194.51487,210.80163 c 0,-10.90126 5.99165,-17.72895 17.19223,-17.72895 11.19973,0 17.19138,6.82769 17.19138,17.72895 0,11.00868 -5.89162,17.73664 -17.19138,17.73664 -11.29291,0 -17.19223,-6.72796 -17.19223,-17.73664 z m 9.43592,0 c 0,5.94544 2.20968,10.95495 7.75631,10.95495 5.55391,0 7.76317,-5.00951 7.76317,-10.95495 0,-5.64629 -2.20926,-10.9473 -7.76317,-10.9473 -5.54663,0 -7.75631,5.30101 -7.75631,10.9473"
       style="fill:#137a97;fill-opacity:1;fill-rule:evenodd;stroke:none;stroke-width:7.67155313"
       id="path98-5-3"
       inkscape:connector-curvature="0"
       inkscape:export-filename="G:\Users\suitedoalex\sites\banco-central-do-brasil-logo-5.png"
       inkscape:export-xdpi="71.036362"
       inkscape:export-ydpi="71.036362" /><path
       d="m 272.56497,201.61879 c -2.5008,-0.98198 -5.54665,-1.76446 -8.54589,-1.76446 -6.67436,0 -11.44639,4.07357 -11.44639,10.80157 0,6.39037 4.22742,11.10068 10.7094,11.10068 3.14588,0 5.99935,-0.78243 8.93789,-2.40115 l 0.74425,7.41074 c -3.29121,0.98194 -6.68204,1.7721 -10.17246,1.7721 -11.29292,0 -19.64687,-5.94545 -19.64687,-17.88237 0,-12.96494 10.55593,-17.58322 19.7003,-17.58322 4.66431,0 7.55667,0.73644 10.16478,1.38088 l -0.44331,7.16523"
       style="fill:#137a97;fill-opacity:1;fill-rule:evenodd;stroke:none;stroke-width:7.67155313"
       id="path100-1-4"
       inkscape:connector-curvature="0"
       inkscape:export-filename="G:\Users\suitedoalex\sites\banco-central-do-brasil-logo-5.png"
       inkscape:export-xdpi="71.036362"
       inkscape:export-ydpi="71.036362" /><path
       d="m 277.15275,193.66339 h 24.70233 v 6.48245 h -15.56565 v 7.76358 h 14.19212 v 6.48249 h -14.19212 v 7.0732 h 15.02872 v 6.4824 h -24.1654 v -34.28412"
       style="fill:#137a97;fill-opacity:1;fill-rule:evenodd;stroke:none;stroke-width:7.67155313"
       id="path102-1-0"
       inkscape:connector-curvature="0"
       inkscape:export-filename="G:\Users\suitedoalex\sites\banco-central-do-brasil-logo-5.png"
       inkscape:export-xdpi="71.036362"
       inkscape:export-ydpi="71.036362" /><path
       d="m 402.31401,193.66339 h 9.27518 l 2.7077,7.31861 h 12.87291 l 2.54739,-7.31861 h 10.01901 l -13.21062,34.28412 H 415.325 Z m 22.6927,13.80111 h -8.59975 l 4.41851,13.40986 h 0.10687 l 4.07394,-13.40986"
       style="fill:#137a97;fill-opacity:1;fill-rule:evenodd;stroke:none;stroke-width:7.67155313"
       id="path104-9-7"
       inkscape:connector-curvature="0"
       inkscape:export-filename="G:\Users\suitedoalex\sites\banco-central-do-brasil-logo-5.png"
       inkscape:export-xdpi="71.036362"
       inkscape:export-ydpi="71.036362" /><path
       d="m 441.93006,193.66339 h 23.28306 v 6.78164 h -14.14639 v 27.50248 h -9.13667 v -34.28412"
       style="fill:#137a97;fill-opacity:1;fill-rule:evenodd;stroke:none;stroke-width:7.67155313"
       id="path106-0-1"
       inkscape:connector-curvature="0"
       inkscape:export-filename="G:\Users\suitedoalex\sites\banco-central-do-brasil-logo-5.png"
       inkscape:export-xdpi="71.036362"
       inkscape:export-ydpi="71.036362" /><path
       d="m 135.71985,142.67162 h 12.47406 c 11.69133,0 20.29109,4.4725 20.29109,17.29167 0,13.25644 -8.35437,16.99247 -20.29109,16.99247 h -12.47406 z m 9.13711,27.50253 h 3.53616 c 6.68205,0 10.65596,-3.53659 10.65596,-10.36429 0,-6.82768 -3.82814,-10.35659 -10.65596,-10.35659 h -3.53616 v 20.72088"
       style="fill:#137a97;fill-opacity:1;fill-rule:evenodd;stroke:none;stroke-width:7.67155313"
       id="path108-0-3-7"
       inkscape:connector-curvature="0"
       sodipodi:nodetypes="cssscccssscc"
       inkscape:export-filename="G:\Users\suitedoalex\sites\banco-central-do-brasil-logo-5.png"
       inkscape:export-xdpi="71.036362"
       inkscape:export-ydpi="71.036362" /><path
       d="m 170.46469,159.80986 c 0,-10.90125 5.99892,-17.72894 17.19137,-17.72894 11.20058,0 17.19223,6.82769 17.19223,17.72894 0,11.00868 -5.89162,17.73664 -17.19223,17.73664 -11.29206,0 -17.19137,-6.72796 -17.19137,-17.73664 z m 9.43591,0 c 0,5.94544 2.20155,10.95494 7.75546,10.95494 5.54664,0 7.76444,-5.0095 7.76444,-10.95494 0,-5.64628 -2.2178,-10.94729 -7.76444,-10.94729 -5.55391,0 -7.75546,5.30101 -7.75546,10.94729"
       style="fill:#137a97;fill-opacity:1;fill-rule:evenodd;stroke:none;stroke-width:7.67155313"
       id="path110-6-7-2"
       inkscape:connector-curvature="0"
       sodipodi:nodetypes="ssssscsssc"
       inkscape:export-filename="G:\Users\suitedoalex\sites\banco-central-do-brasil-logo-5.png"
       inkscape:export-xdpi="71.036362"
       inkscape:export-ydpi="71.036362" /><path
       d="m 220.65162,142.67162 h 14.43794 c 6.13742,0 13.35596,1.71842 13.35596,9.91932 0,4.17329 -2.3546,6.63587 -6.91972,7.56411 v 0.10003 c 3.82857,1.28114 6.03012,3.68234 6.03012,8.00906 0,5.89174 -4.75622,8.69191 -11.13901,8.69191 h -15.76529 z m 9.12941,14.53759 h 2.80047 c 3.14502,0 6.72735,-0.34542 6.72735,-4.07362 0,-3.49056 -3.49043,-3.98152 -6.82738,-3.98152 h -2.70044 z m 0,13.26414 h 2.65426 c 3.04542,0 5.99123,-0.29925 5.99123,-3.43687 0,-2.89986 -3.09159,-3.63633 -6.09083,-3.63633 h -2.55466 v 7.0732"
       style="fill:#137a97;fill-opacity:1;fill-rule:evenodd;stroke:none;stroke-width:7.67155313"
       id="path112-2-4-7"
       inkscape:connector-curvature="0"
       sodipodi:nodetypes="cssccsscccssscccssscc"
       inkscape:export-filename="G:\Users\suitedoalex\sites\banco-central-do-brasil-logo-5.png"
       inkscape:export-xdpi="71.036362"
       inkscape:export-ydpi="71.036362" /><path
       d="m 252.63447,142.67162 h 9.13667 v 13.55565 h 1.91044 c 3.39083,0 4.56427,-1.47295 6.43623,-7.3647 l 1.96431,-6.19095 h 9.52782 l -3.33696,9.33627 c -1.7185,4.17333 -1.91813,6.774 -4.86394,7.55651 v 0.10004 c 4.41893,1.03566 6.58243,4.08129 6.58243,8.64587 0,5.89174 -4.96354,8.64578 -11.05523,8.64578 h -16.30177 z m 9.13667,27.80173 h 2.40162 c 3.49042,0 6.68119,-0.59074 6.68119,-3.78211 0,-3.88184 -3.72812,-3.98157 -6.68119,-3.98157 h -2.40162 v 7.76368"
       style="fill:#137a97;fill-opacity:1;fill-rule:evenodd;stroke:none;stroke-width:7.67155313"
       id="path114-3-5-2"
       inkscape:connector-curvature="0"
       sodipodi:nodetypes="cccsccccccsscccssscc"
       inkscape:export-filename="G:\Users\suitedoalex\sites\banco-central-do-brasil-logo-5.png"
       inkscape:export-xdpi="71.036362"
       inkscape:export-ydpi="71.036362" /><path
       d="m 282.5688,142.67162 h 9.28287 l 2.7,7.31861 h 12.87291 l 2.55466,-7.31861 h 10.01944 l -13.21063,34.28414 h -11.201 z m 22.7004,13.80111 h -8.60018 l 4.41892,13.40988 h 0.10259 l 4.08079,-13.40988"
       style="fill:#137a97;fill-opacity:1;fill-rule:evenodd;stroke:none;stroke-width:7.67155313"
       id="path116-3-4-6"
       inkscape:connector-curvature="0"
       sodipodi:nodetypes="cccccccccccccc"
       inkscape:export-filename="G:\Users\suitedoalex\sites\banco-central-do-brasil-logo-5.png"
       inkscape:export-xdpi="71.036362"
       inkscape:export-ydpi="71.036362" /><path
       d="m 350.65418,176.95576 h 9.13666 v -34.28414 h -9.13666 z"
       style="fill:#137a97;fill-opacity:1;fill-rule:nonzero;stroke:none;stroke-width:7.67155313"
       id="path118-4-0-3"
       inkscape:connector-curvature="0"
       sodipodi:nodetypes="ccccc"
       inkscape:export-filename="G:\Users\suitedoalex\sites\banco-central-do-brasil-logo-5.png"
       inkscape:export-xdpi="71.036362"
       inkscape:export-ydpi="71.036362" /><path
       d="m 365.99709,142.67162 h 23.28307 v 6.78165 h -14.14639 v 27.50249 h -9.13668 v -34.28414"
       style="fill:#137a97;fill-opacity:1;fill-rule:evenodd;stroke:none;stroke-width:7.67155313"
       id="path120-0-9-2"
       inkscape:connector-curvature="0"
       sodipodi:nodetypes="ccccccc"
       inkscape:export-filename="G:\Users\suitedoalex\sites\banco-central-do-brasil-logo-5.png"
       inkscape:export-xdpi="71.036362"
       inkscape:export-ydpi="71.036362" /><path
       d="m 321.27173,143.55383 c 3.04584,-0.98194 7.02703,-1.47291 10.21908,-1.47291 7.6101,0 15.08171,2.40884 15.08171,11.30018 0,12.3742 -16.20986,8.64584 -16.20986,14.19235 0,2.99959 3.82815,3.19135 6.13743,3.19135 2.60082,0 5.25466,-0.49091 7.61011,-1.57263 l 0.59806,7.07319 c -2.30886,0.79017 -5.55391,1.28114 -8.84513,1.28114 -6.87356,0 -14.92912,-2.26312 -14.92912,-10.51002 0,-12.48166 16.2103,-8.45406 16.2103,-14.83682 0,-2.74639 -2.75429,-3.33709 -5.6535,-3.33709 -3.78241,0 -7.07321,0.98194 -9.42867,2.25546 l -0.79041,-7.5642"
       style="fill:#137a97;fill-opacity:1;fill-rule:evenodd;stroke:none;stroke-width:7.67155313"
       id="path122-5-3-8"
       inkscape:connector-curvature="0"
       sodipodi:nodetypes="cssssccsssscc"
       inkscape:export-filename="G:\Users\suitedoalex\sites\banco-central-do-brasil-logo-5.png"
       inkscape:export-xdpi="71.036362"
       inkscape:export-ydpi="71.036362" /></g></svg>